<?xml version="1.0" encoding="utf-8"?>
<!-- Generator: Adobe Illustrator 23.0.2, SVG Export Plug-In . SVG Version: 6.00 Build 0)  -->
<svg version="1.1" id="Layer_1" xmlns="http://www.w3.org/2000/svg" xmlns:xlink="http://www.w3.org/1999/xlink" x="0px" y="0px"
	 viewBox="0 0 37 37" style="enable-background:new 0 0 37 37;" xml:space="preserve">
<path d="M18.5,0C8.3,0,0,8.3,0,18.5S8.3,37,18.5,37S37,28.7,37,18.5S28.7,0,18.5,0z M18.5,7.4c3.7,0,6.6,3,6.6,6.6s-3,6.6-6.6,6.6
	s-6.6-3-6.6-6.6S14.9,7.4,18.5,7.4z M18.6,35c-4.5,0-8.6-1.7-11.7-4.6c1.9-4.7,6.4-7.9,11.8-7.9c5.3,0,9.8,3.3,11.7,7.9
	C27.3,33.2,23.1,35,18.6,35z"/>
</svg>
