<?xml version="1.0" encoding="utf-8"?>
<!-- Generator: Adobe Illustrator 23.0.2, SVG Export Plug-In . SVG Version: 6.00 Build 0)  -->
<svg version="1.1" id="Layer_1" xmlns="http://www.w3.org/2000/svg" xmlns:xlink="http://www.w3.org/1999/xlink" x="0px" y="0px"
	 viewBox="0 0 64 36.9" style="enable-background:new 0 0 64 36.9;" xml:space="preserve">
<g>
	<path d="M41.2,8.7H22.8c-2.7,8.1-1.6,28.2-1.6,28.2h21.7C42.8,36.9,43.9,16.8,41.2,8.7z"/>
	<path d="M3.8,36.9c0,0-3.8-1.1-3.8-9.8C0,10.8,3.8,8.7,3.8,8.7h10.8c0,0-3.8,19-1.1,28.2"/>
	<path d="M60.2,36.9c0,0,3.8-1.1,3.8-9.8c0-16.3-3.8-18.4-3.8-18.4H49.4c0,0,3.8,19,1.1,28.2"/>
	<path d="M16.8,8.7c-3.8,11.9-1.6,28.2-1.6,28.2h4.9c-2.2-9.2-0.9-16.7-0.5-22.8c0.5-8.1,4.3-8.7,4.3-8.7l-1.6-2.7
		C22.2,2.7,18.2,4.3,16.8,8.7z"/>
	<path d="M39.1,0.5C37.4,0,32,0,32,0s-5.4,0-7.1,0.5c-1.6,0.5-1.6,3.3-0.5,3.8s3.5,0.7,4.9,0C30.4,3.8,32,3.8,32,3.8s1.6,0,2.7,0.5
		c1.4,0.7,3.8,0.5,4.9,0C40.7,3.8,40.7,1.1,39.1,0.5z"/>
	<path d="M47.1,8.7c3.8,11.9,1.6,28.2,1.6,28.2h-4.9c2.2-9.2,0.9-16.7,0.5-22.8c-0.5-8.1-4.3-8.7-4.3-8.7l1.6-2.7
		C41.7,2.7,45.7,4.3,47.1,8.7z"/>
</g>
</svg>
