<?xml version="1.0" encoding="utf-8"?>
<!-- Generator: Adobe Illustrator 25.4.1, SVG Export Plug-In . SVG Version: 6.00 Build 0)  -->
<svg version="1.1" id="Layer_1" xmlns="http://www.w3.org/2000/svg" xmlns:xlink="http://www.w3.org/1999/xlink" x="0px" y="0px"
	 viewBox="0 0 18 18" style="enable-background:new 0 0 18 18;" xml:space="preserve">
<style type="text/css">
	.st0{fill:#9B9C9C;}
</style>
<g>
	<path class="st0" d="M12.77,0H5.23C2.34,0,0,2.34,0,5.23v7.55C0,15.66,2.34,18,5.23,18h7.55c2.89,0,5.23-2.34,5.23-5.23V5.23
		C18,2.34,15.66,0,12.77,0z M16.28,12.7c0,2.03-1.65,3.68-3.68,3.68H5.19c-2.03,0-3.68-1.65-3.68-3.68V5.3
		c0-2.03,1.65-3.68,3.68-3.68h7.41c2.03,0,3.68,1.65,3.68,3.68v0V12.7z"/>
	<circle class="st0" cx="13.8" cy="4.3" r="1.06"/>
	<path class="st0" d="M9,4.35C6.43,4.35,4.35,6.43,4.35,9S6.43,13.65,9,13.65s4.65-2.08,4.65-4.65S11.57,4.35,9,4.35L9,4.35z
		 M9,12.03c-1.68,0-3.03-1.36-3.03-3.03S7.32,5.97,9,5.97S12.03,7.32,12.03,9S10.68,12.03,9,12.03L9,12.03z"/>
</g>
</svg>
