<?xml version="1.0" encoding="utf-8"?>
<!-- Generator: Adobe Illustrator 25.4.1, SVG Export Plug-In . SVG Version: 6.00 Build 0)  -->
<svg version="1.1" id="Layer_1" xmlns="http://www.w3.org/2000/svg" xmlns:xlink="http://www.w3.org/1999/xlink" x="0px" y="0px"
	 viewBox="0 0 18 18" style="enable-background:new 0 0 18 18;" xml:space="preserve">
<style type="text/css">
	.st0{fill:#9B9C9C;}
</style>
<path class="st0" d="M16.51,0H1.49C0.67,0,0,0.67,0,1.49v15.02C0,17.33,0.67,18,1.49,18h15.02c0.82,0,1.49-0.67,1.49-1.49V1.49
	C18,0.67,17.33,0,16.51,0z M5.59,15.56c0,0.26-0.21,0.47-0.47,0.47H3.08c-0.26,0-0.47-0.21-0.47-0.47V7.05
	c0-0.26,0.21-0.47,0.47-0.47h2.04c0.26,0,0.47,0.21,0.47,0.47V15.56z M4.06,5.85c-1.08,0-1.95-0.87-1.95-1.95s0.87-1.95,1.95-1.95
	S6.01,2.82,6.01,3.9S5.14,5.85,4.06,5.85z M16.08,15.61c0,0.22-0.18,0.41-0.41,0.41h-2.21c-0.22,0-0.41-0.18-0.41-0.41v-4.92
	c0,0-0.07-1.71-1.55-1.71s-1.63,1.85-1.63,2.22v4.33c0,0.27-0.22,0.49-0.49,0.49h-2c-0.27,0-0.49-0.22-0.49-0.49V7.07
	c0-0.27,0.22-0.49,0.49-0.49h2c0.27,0,0.49,0.22,0.49,0.49v0.67c0.22-0.39,0.93-1.25,2.87-1.25c2.5,0,3.34,2.04,3.34,3.38V15.61z"/>
</svg>
