<?xml version="1.0" encoding="utf-8"?>
<!-- Generator: Adobe Illustrator 23.0.2, SVG Export Plug-In . SVG Version: 6.00 Build 0)  -->
<svg version="1.1" id="Layer_1" xmlns="http://www.w3.org/2000/svg" xmlns:xlink="http://www.w3.org/1999/xlink" x="0px" y="0px"
	 viewBox="0 0 133.7 33.9" style="enable-background:new 0 0 133.7 33.9;" xml:space="preserve">
<style type="text/css">
	.st0{enable-background:new    ;}
	.st1{fill:#D80000;}
</style>
<g>
	<g class="st0">
		<path d="M22.7,5.7H14v27.7H8.8V5.7H0V0.6h22.7V5.7z"/>
		<path d="M23.6,17c0-9.4,7.6-17,16.9-17c9.3,0,17,7.6,17,17c0,9.3-7.6,16.9-17,16.9C31.2,33.9,23.6,26.3,23.6,17z M52.3,17
			c0-6.5-5.3-11.8-11.8-11.8S28.8,10.5,28.8,17c0,6.4,5.3,11.7,11.7,11.7S52.3,23.4,52.3,17z"/>
		<path d="M80.3,33.4l-8.8-12.7h-4v12.7h-5.1l0-32.8h10.2c6.1,0,11.1,4.7,11.1,10.5c0,4.2-2.7,7.9-6.5,9.1l9.5,13.1H80.3z
			 M72.6,16.4c3.1,0,5.7-2.5,5.7-5.4c0-3.1-2.6-5.3-5.7-5.3h-5.2v10.7H72.6z"/>
		<path d="M88.5,17c0-9.4,7.6-17,16.9-17c9.3,0,17,7.6,17,17c0,9.3-7.6,16.9-17,16.9C96.1,33.9,88.5,26.3,88.5,17z M117.2,17
			c0-6.5-5.3-11.8-11.8-11.8S93.7,10.5,93.7,17c0,6.4,5.3,11.7,11.7,11.7S117.2,23.4,117.2,17z"/>
	</g>
	<rect x="125.3" y="25.1" class="st1" width="8.4" height="8.4"/>
</g>
</svg>
